<?xml version="1.0" encoding="UTF-8"?>
<svg width="1200pt" height="1200pt" version="1.1" viewBox="0 0 1200 1200" xmlns="http://www.w3.org/2000/svg">
 <g>
  <path d="m439.82 300.88c0 46.684-37.844 84.527-84.527 84.527-46.688 0-84.531-37.844-84.531-84.527s37.844-84.527 84.531-84.527c46.684 0 84.527 37.844 84.527 84.527"/>
  <path d="m689.38 300.88c0 46.684-37.844 84.527-84.527 84.527-46.684 0-84.527-37.844-84.527-84.527s37.844-84.527 84.527-84.527c46.684 0 84.527 37.844 84.527 84.527"/>
  <path d="m944.73 300.88c0 46.684-37.844 84.527-84.527 84.527-46.688 0-84.531-37.844-84.531-84.527s37.844-84.527 84.531-84.527c46.684 0 84.527 37.844 84.527 84.527"/>
  <path d="m1051.9 565.55-100.69-113.89c-19.191-28.082-51.004-46.797-87.281-48.023v-0.11719h-508.68c-37.84 0-71.199 19.086-91.047 48.141l-100.69 113.89c-16.574 18.734-14.816 47.352 3.9141 63.91 18.734 16.57 47.355 14.816 63.922-3.9141l13.715-15.504 0.027344 336.01c0 25.02 20.27 45.285 45.277 45.285 25.008 0 45.285-20.266 45.285-45.285v-179.26l39.297-0.003906v179.16c0 25.016 20.277 45.285 45.277 45.285 25.016 0 45.285-20.27 45.285-45.285 0 0-0.28516-439.32-0.61719-442.8h30.25c-0.32422 3.4805-0.5 442.9-0.5 442.9 0 25.02 20.277 45.285 45.285 45.285 25.008 0 45.277-20.266 45.277-45.285v-179.26h39.293v179.16c0 25.016 20.277 45.285 45.285 45.285 25.008 0 45.285-20.27 45.285-45.285 0 0-0.29297-439.32-0.625-442.8h36.051c-0.32812 3.4805-0.61328 442.8-0.61328 442.8 0 25.016 20.277 45.285 45.273 45.285 25.008 0 45.285-20.27 45.285-45.285v-179.16h39.297v179.26c0 25.02 20.266 45.285 45.285 45.285 25.004 0 45.281-20.266 45.281-45.285l0.023437-336.01 13.719 15.504c16.559 18.734 45.172 20.484 63.914 3.9141 18.734-16.559 20.492-45.176 3.9336-63.906z"/>
 </g>
</svg>
